<svg width="414" height="123" viewBox="0 0 414 123" fill="none" xmlns="http://www.w3.org/2000/svg">
<path fill-rule="evenodd" clip-rule="evenodd" d="M42.6297 86.9465C45.1731 87.7351 47.805 88.1489 50.5 88.1489C62.2728 88.1489 72.8427 80.2507 80.0793 67.721C86.1902 74.1661 94.8706 78.1915 104.5 78.1915C118.961 78.1915 131.281 69.1136 135.973 56.3959C141.722 57.6106 147.969 58.2765 154.5 58.2765C163.532 58.2765 172.021 57.0028 179.401 54.7653C182.578 73.5869 204.245 88.1489 230.5 88.1489C251.365 88.1489 269.331 78.9528 277.424 65.731C282.143 73.4202 288.722 78.1915 296 78.1915C304.967 78.1915 312.874 70.9472 317.548 59.9261C326.599 70.8816 342.898 78.1914 361.5 78.1914C361.814 78.1914 362.127 78.1893 362.44 78.1852C369.307 96.0654 381.99 108.064 396.5 108.064C418.315 108.064 436 80.9437 436 47.4893C436 14.035 418.315 -13.0851 396.5 -13.0851C388.839 -13.0851 381.688 -9.7406 375.632 -3.95173H301.217C299.532 -4.4996 297.787 -4.78725 296 -4.78725C294.213 -4.78725 292.468 -4.4996 290.783 -3.95173H84.2353C77.2981 -21.372 64.7845 -33 50.5 -33C36.2155 -33 23.7019 -21.372 16.7647 -3.95173H-5V4.45829C-21.2061 12.0095 -33 35.1053 -33 62.4255C-33 95.8798 -15.3152 123 6.5 123C22.6239 123 36.4914 108.185 42.6297 86.9465Z" fill="#676767" fill-opacity="0.5"/>
</svg>
