<svg width="414" height="128" viewBox="0 0 414 128" fill="none" xmlns="http://www.w3.org/2000/svg">
<g clip-path="url(#clip0_200_173)">
<rect width="414" height="128" rx="10" fill="white"/>
<rect width="414" height="151" fill="url(#paint0_linear_200_173)"/>
<path fill-rule="evenodd" clip-rule="evenodd" d="M82.1724 59.7695C106.133 59.6837 125.5 50.6334 125.5 39.4818C125.5 30.626 113.287 23.0955 96.2582 20.3271C90.9731 9.7384 74.1969 2 54.319 2C36.8752 2 21.8201 7.9592 14.8228 16.5743C8.55711 15.167 1.54457 14.3793 -5.85824 14.3793C-32.4462 14.3793 -54 24.5404 -54 37.0747C-54 47.9397 -37.805 57.0215 -16.1743 59.2478V59.7701H-5.85824H81.8015C81.8105 59.7701 81.8195 59.7701 81.8286 59.7701C81.8376 59.7701 81.8466 59.7701 81.8556 59.7701H82.1724V59.7695Z" fill="white" fill-opacity="0.8"/>
<path fill-rule="evenodd" clip-rule="evenodd" d="M437.516 89.206C440.343 89.9786 443.379 90.3985 446.54 90.3985C461.733 90.3985 474.05 80.6993 474.05 68.7347C474.05 56.7701 461.733 47.0709 446.54 47.0709C443.547 47.0709 440.665 47.4474 437.967 48.1436C434.032 33.7288 419.042 23 401.149 23C385.412 23 371.92 31.2999 366.221 43.1077C363.874 42.5529 361.404 42.2567 358.853 42.2567C343.47 42.2567 331 53.0336 331 66.3276C331 79.6216 343.47 90.3985 358.853 90.3985C360.544 90.3985 362.2 90.2683 363.807 90.0189L437.516 89.206Z" fill="white" fill-opacity="0.8"/>
<path fill-rule="evenodd" clip-rule="evenodd" d="M324.59 27.8723C328.229 27.8723 331.783 27.3364 335.218 26.3152C343.507 53.8159 362.234 73 384.009 73C413.469 73 437.351 37.8829 437.351 -5.4362C437.351 -48.7553 413.469 -83.8724 384.009 -83.8724C380.369 -83.8724 376.815 -83.3364 373.38 -82.3153C365.091 -109.816 346.364 -129 324.59 -129C298.783 -129 277.257 -102.053 272.315 -66.2511C266.125 -69.273 259.105 -70.9786 251.667 -70.9786C247.472 -70.9786 243.41 -70.4362 239.556 -69.4212C226.854 -78.2024 206.76 -83.8724 184.145 -83.8724C155.936 -83.8724 131.65 -75.0503 120.74 -62.372C109.573 -67.8023 96.0649 -70.9786 81.5128 -70.9786C59.4499 -70.9786 39.7865 -63.6774 27.0456 -52.2893C23.1221 -75.4028 9.39343 -92.4681 -6.94016 -92.4681C-20.6949 -92.4681 -32.6023 -80.3662 -38.3625 -62.7416C-50.9356 -75.5171 -71.7914 -83.8724 -95.3932 -83.8724C-99.3659 -83.8724 -103.261 -83.6356 -107.052 -83.1809C-116.494 -95.6365 -128.974 -103.213 -142.658 -103.213C-172.118 -103.213 -196 -68.0958 -196 -24.7767C-196 18.5424 -172.118 53.6595 -142.658 53.6595C-123.063 53.6595 -105.936 38.1231 -96.6625 14.9706C-96.2403 14.976 -95.8172 14.9787 -95.3932 14.9787C-70.2725 14.9787 -48.2625 5.5134 -36.0394 -8.67258C-29.7278 5.59837 -19.0499 14.9787 -6.94016 14.9787C2.88762 14.9787 11.7723 8.80055 18.1455 -1.15596C29.0742 15.9647 53.3368 27.8724 81.5128 27.8724C116.969 27.8724 146.228 9.01637 150.518 -15.3551C160.485 -12.4579 171.948 -10.8085 184.145 -10.8085C192.965 -10.8085 201.401 -11.6709 209.164 -13.2437C215.501 3.22412 232.139 14.9788 251.667 14.9788C264.671 14.9788 276.393 9.76649 284.645 1.42104C294.418 17.6452 308.691 27.8723 324.59 27.8723Z" fill="white" fill-opacity="0.5"/>
</g>
<defs>
<linearGradient id="paint0_linear_200_173" x1="0" y1="75.5" x2="414" y2="75.5" gradientUnits="userSpaceOnUse">
<stop stop-color="#83BFEA"/>
<stop offset="1" stop-color="#99CFF5"/>
</linearGradient>
<clipPath id="clip0_200_173">
<rect width="414" height="128" rx="10" fill="white"/>
</clipPath>
</defs>
</svg>
