<svg width="414" height="125" viewBox="0 0 414 125" fill="none" xmlns="http://www.w3.org/2000/svg">
<g clip-path="url(#clip0_200_131)">
<rect width="414" height="125" rx="10" fill="white"/>
<rect opacity="0.8" y="-15" width="414" height="460" fill="url(#paint0_linear_200_131)"/>
<circle opacity="0.23" cx="372.052" cy="0.0522614" r="84.0523" fill="white" fill-opacity="0.49"/>
<circle opacity="0.28" cx="371.972" cy="-0.0277939" r="66.0411" fill="white" fill-opacity="0.3"/>
<path fill-rule="evenodd" clip-rule="evenodd" d="M401.279 47.9724C395.346 50.9871 388.695 52.6764 381.671 52.6764C356.674 52.6764 336.411 31.2871 336.411 4.90198C336.411 -3.23195 338.336 -10.8911 341.733 -17.5952C325.282 -10.3298 313.781 6.29698 313.781 25.6462C313.781 51.6841 334.607 72.792 360.298 72.792C378.019 72.792 393.426 62.749 401.279 47.9724Z" fill="#F2EAC9"/>
<path fill-rule="evenodd" clip-rule="evenodd" d="M81.1724 65.7695C105.133 65.6837 124.5 56.6334 124.5 45.4818C124.5 36.626 112.287 29.0955 95.2582 26.3271C89.9731 15.7384 73.1969 8 53.319 8C35.8752 8 20.8201 13.9592 13.8228 22.5743C7.55711 21.167 0.544567 20.3793 -6.85824 20.3793C-33.4462 20.3793 -55 30.5404 -55 43.0747C-55 53.9397 -38.805 63.0215 -17.1743 65.2478V65.7701H-6.85824H80.8015C80.8105 65.7701 80.8195 65.7701 80.8286 65.7701C80.8376 65.7701 80.8466 65.7701 80.8556 65.7701H81.1724V65.7695Z" fill="white" fill-opacity="0.5"/>
<path fill-rule="evenodd" clip-rule="evenodd" d="M444.516 102.206C447.343 102.979 450.379 103.398 453.54 103.398C468.733 103.398 481.05 93.6993 481.05 81.7347C481.05 69.7701 468.733 60.0709 453.54 60.0709C450.547 60.0709 447.665 60.4474 444.967 61.1436C441.032 46.7288 426.042 36 408.149 36C392.412 36 378.92 44.2999 373.221 56.1077C370.874 55.5529 368.404 55.2567 365.853 55.2567C350.47 55.2567 338 66.0336 338 79.3276C338 92.6216 350.47 103.398 365.853 103.398C367.544 103.398 369.2 103.268 370.807 103.019L444.516 102.206Z" fill="white" fill-opacity="0.5"/>
</g>
<defs>
<linearGradient id="paint0_linear_200_131" x1="319" y1="0.499989" x2="85.5" y2="431.5" gradientUnits="userSpaceOnUse">
<stop stop-color="#0D2435"/>
<stop offset="1" stop-color="#020507"/>
</linearGradient>
<clipPath id="clip0_200_131">
<rect width="414" height="125" rx="10" fill="white"/>
</clipPath>
</defs>
</svg>
