<svg width="414" height="128" viewBox="0 0 414 128" fill="none" xmlns="http://www.w3.org/2000/svg">
<g clip-path="url(#clip0_200_40)">
<rect width="414" height="128" rx="10" fill="white"/>
<rect width="414" height="151" fill="url(#paint0_linear_200_40)"/>
<circle opacity="0.23" cx="357.529" cy="-0.471252" r="84.5287" fill="white" fill-opacity="0.49"/>
<circle opacity="0.28" cx="357.448" cy="-0.551727" r="66.4154" fill="white" fill-opacity="0.3"/>
<circle cx="357.73" cy="-0.269962" r="45.2833" fill="#FCE588"/>
<path fill-rule="evenodd" clip-rule="evenodd" d="M82.1724 59.7695C106.133 59.6837 125.5 50.6334 125.5 39.4818C125.5 30.626 113.287 23.0955 96.2582 20.3271C90.9731 9.7384 74.1969 2 54.319 2C36.8752 2 21.8201 7.9592 14.8228 16.5743C8.55711 15.167 1.54457 14.3793 -5.85824 14.3793C-32.4462 14.3793 -54 24.5404 -54 37.0747C-54 47.9397 -37.805 57.0215 -16.1743 59.2478V59.7701H-5.85824H81.8015C81.8105 59.7701 81.8195 59.7701 81.8286 59.7701C81.8376 59.7701 81.8466 59.7701 81.8556 59.7701H82.1724V59.7695Z" fill="white" fill-opacity="0.8"/>
<path fill-rule="evenodd" clip-rule="evenodd" d="M445.516 77.206C448.343 77.9786 451.379 78.3985 454.54 78.3985C469.733 78.3985 482.05 68.6993 482.05 56.7347C482.05 44.7701 469.733 35.0709 454.54 35.0709C451.547 35.0709 448.665 35.4474 445.967 36.1436C442.032 21.7288 427.042 11 409.149 11C393.412 11 379.92 19.2999 374.221 31.1077C371.874 30.5529 369.404 30.2567 366.853 30.2567C351.47 30.2567 339 41.0336 339 54.3276C339 67.6216 351.47 78.3985 366.853 78.3985C368.544 78.3985 370.2 78.2683 371.807 78.0189L445.516 77.206Z" fill="white" fill-opacity="0.8"/>
</g>
<defs>
<linearGradient id="paint0_linear_200_40" x1="0" y1="75.5" x2="414" y2="75.5" gradientUnits="userSpaceOnUse">
<stop stop-color="#83BFEA"/>
<stop offset="1" stop-color="#99CFF5"/>
</linearGradient>
<clipPath id="clip0_200_40">
<rect width="414" height="128" rx="10" fill="white"/>
</clipPath>
</defs>
</svg>
