<svg width="108" height="90" viewBox="0 0 108 90" fill="none" xmlns="http://www.w3.org/2000/svg">
<circle opacity="0.23" cx="45" cy="45" r="45" fill="white" fill-opacity="0.49"/>
<circle opacity="0.28" cx="45" cy="45" r="36" fill="white" fill-opacity="0.3"/>
<path d="M97.4413 70.4072H16.8796C16.685 70.4072 16.4983 70.3531 16.3414 70.2381C14.7562 69.0761 5.97951 61.9294 10.0813 48.8052C14.0407 36.1368 28.0645 34.615 31.3766 34.4322C31.8015 34.4087 32.1726 34.1502 32.3398 33.7589C33.8023 30.3367 41.7799 14.6291 64.0813 17.3052C86.3293 19.975 91.9462 39.3566 92.9132 43.5913C93.0221 44.0681 93.4394 44.4109 93.9269 44.4502C96.8266 44.6841 106.236 46.1916 107.081 55.9072C108.015 66.6478 98.918 69.9739 97.7124 70.3664C97.624 70.3952 97.5342 70.4072 97.4413 70.4072Z" fill="#F2F2F2"/>
</svg>
