<svg width="111" height="90" viewBox="0 0 111 90" fill="none" xmlns="http://www.w3.org/2000/svg">
<circle opacity="0.23" cx="53" cy="45" r="45" fill="white" fill-opacity="0.49"/>
<circle opacity="0.28" cx="53" cy="45" r="36" fill="white" fill-opacity="0.3"/>
<path fill-rule="evenodd" clip-rule="evenodd" d="M110.79 47.8093C107.278 49.5937 103.342 50.5936 99.1839 50.5936C84.3886 50.5936 72.3946 37.9333 72.3946 22.3161C72.3946 17.5016 73.5345 12.9681 75.5449 9C65.8073 13.3004 59 23.1417 59 34.5945C59 50.0062 71.3271 62.5 86.5334 62.5C97.0224 62.5 106.141 56.5555 110.79 47.8093Z" fill="#F2EAC9"/>
<path d="M80.1858 75H7.17077C6.97752 75 6.78846 74.9441 6.63248 74.83C5.13148 73.7321 -2.71826 67.3149 0.980541 55.5851C4.54468 44.2824 17.1023 42.8521 20.2236 42.6711C20.6473 42.6465 21.0224 42.387 21.1922 41.9979C22.5894 38.7952 29.8619 24.8855 49.9472 27.2743C69.9753 29.6564 75.1402 46.8416 76.0719 50.8143C76.1835 51.2899 76.5984 51.6359 77.0852 51.6771C79.7973 51.9069 88.1801 53.3168 88.9391 61.9681C89.7835 71.5925 81.5856 74.5927 80.4534 74.9601C80.3657 74.9885 80.2779 75 80.1858 75Z" fill="#F2F2F2"/>
</svg>
