<svg width="90" height="90" viewBox="0 0 90 90" fill="none" xmlns="http://www.w3.org/2000/svg">
<circle opacity="0.23" cx="48.3252" cy="41.2036" r="41.2036" fill="white" fill-opacity="0.49"/>
<circle opacity="0.28" cx="48.834" cy="41.7123" r="30.5212" fill="white" fill-opacity="0.3"/>
<path fill-rule="evenodd" clip-rule="evenodd" d="M83.7899 66.2323C78.1088 69.1192 71.7398 70.7369 65.0127 70.7369C41.0757 70.7369 21.6709 50.2541 21.6709 24.9872C21.6709 17.198 23.515 9.86341 26.7676 3.44342C11.0134 10.4009 0 26.323 0 44.8522C0 69.7866 19.9438 90 44.5458 90C61.5157 90 76.2693 80.3826 83.7899 66.2323Z" fill="#F2EAC9"/>
<path d="M64.7304 17.9312L67.6554 9.15637L70.5803 17.9312L79.3552 20.8562L70.5803 23.7811L67.6554 32.556L64.7304 23.7811L55.9556 20.8562L64.7304 17.9312Z" fill="#FCE588"/>
</svg>
