<svg width="100" height="90" viewBox="0 0 100 90" fill="none" xmlns="http://www.w3.org/2000/svg">
<circle opacity="0.23" cx="45" cy="45" r="45" fill="white" fill-opacity="0.49"/>
<circle opacity="0.28" cx="45" cy="45" r="36" fill="white" fill-opacity="0.3"/>
<circle cx="32.1071" cy="40.1071" r="24.1071" fill="#FCE588"/>
<path d="M91.1858 71H18.1708C17.9775 71 17.7885 70.9441 17.6325 70.83C16.1315 69.7321 8.28174 63.3149 11.9805 51.5851C15.5447 40.2824 28.1023 38.8521 31.2236 38.6711C31.6473 38.6465 32.0224 38.387 32.1922 37.9979C33.5894 34.7952 40.8619 20.8855 60.9472 23.2743C80.9753 25.6564 86.1402 42.8416 87.0719 46.8143C87.1835 47.2899 87.5984 47.6359 88.0852 47.6771C90.7973 47.9069 99.1801 49.3168 99.9391 57.9681C100.784 67.5925 92.5856 70.5927 91.4534 70.9601C91.3657 70.9885 91.2779 71 91.1858 71Z" fill="#F2F2F2"/>
</svg>
