<svg width="90" height="90" viewBox="0 0 90 90" fill="none" xmlns="http://www.w3.org/2000/svg">
<circle opacity="0.23" cx="45" cy="45" r="45" fill="white" fill-opacity="0.49"/>
<circle opacity="0.28" cx="44.9998" cy="45" r="36.1268" fill="white" fill-opacity="0.3"/>
<path d="M23.2285 60.2858H32.4857" stroke="white" stroke-width="6" stroke-linecap="round"/>
<path d="M36.9205 29.4682C37.0392 27.8769 37.5918 26.3459 38.5207 25.035C39.4496 23.724 40.7207 22.681 42.2016 22.0147C43.6825 21.3485 45.3188 21.0834 46.9399 21.2471C48.5611 21.4108 50.1077 21.9973 51.4185 22.9454C52.7292 23.8935 53.7562 25.1686 54.3922 26.6376C55.0282 28.1066 55.25 29.7157 55.0344 31.2972C54.8189 32.8787 54.1738 34.3746 53.1666 35.629C52.1594 36.8833 50.8269 37.8501 49.3081 38.4286C47.7892 39.0071 26.3145 38.4286 26.3145 38.4286" stroke="white" stroke-width="6" stroke-linecap="round"/>
<path d="M42.7715 60.6033C42.7715 60.6033 77.2252 59.8887 79.0387 60.6033C80.8522 61.3179 82.4432 62.5122 83.6458 64.0617C84.8484 65.6112 85.6186 67.4591 85.8759 69.4127C86.1333 71.3663 85.8685 73.354 85.1091 75.1687C84.3497 76.9833 83.1235 78.5584 81.5585 79.7296C79.9934 80.9008 78.1468 81.6253 76.2112 81.8275C74.2755 82.0298 72.3218 81.7023 70.5536 80.8793C68.7855 80.0562 67.2677 78.7678 66.1587 77.1484C65.8432 76.6878 65.5641 76.2052 65.3229 75.7052" stroke="white" stroke-width="6" stroke-linecap="round"/>
<path d="M52.7549 21.8955C54.6719 19.1964 57.2952 17.0491 60.3513 15.6774C63.4074 14.3057 66.7843 13.7599 70.13 14.0969C73.4756 14.4339 76.6674 15.6414 79.3724 17.5934C82.0775 19.5455 84.1969 22.1706 85.5094 25.195C86.822 28.2194 87.2797 31.5324 86.8348 34.7884C86.39 38.0444 85.0588 41.1242 82.9802 43.7067C80.9016 46.2891 78.1517 48.2797 75.0172 49.4707C71.8827 50.6617 15 49.4707 15 49.4707" stroke="white" stroke-width="6" stroke-linecap="round"/>
</svg>
