<svg width="414" height="71" viewBox="0 0 414 71" fill="none" xmlns="http://www.w3.org/2000/svg">
<path fill-rule="evenodd" clip-rule="evenodd" d="M352.5 44.8617C355.195 44.8617 357.827 44.5513 360.37 43.9598C366.509 59.8884 380.376 71 396.5 71C418.315 71 436 50.6599 436 25.5692C436 0.478382 418.315 -19.8617 396.5 -19.8617C393.805 -19.8617 391.173 -19.5513 388.63 -18.9598C382.491 -34.8884 368.624 -46 352.5 -46C333.39 -46 317.45 -30.3921 313.79 -9.65532C309.206 -11.4057 304.008 -12.3936 298.5 -12.3936C295.394 -12.3936 292.386 -12.0794 289.532 -11.4915C280.126 -16.5777 265.246 -19.8617 248.5 -19.8617C227.611 -19.8617 209.627 -14.7519 201.548 -7.40861C193.279 -10.5539 183.276 -12.3936 172.5 -12.3936C156.162 -12.3936 141.601 -8.16467 132.167 -1.56857C129.261 -14.9561 119.095 -24.8404 107 -24.8404C96.8145 -24.8404 87.997 -17.8309 83.7315 -7.62259C74.4211 -15.0223 58.9772 -19.8617 41.5 -19.8617C38.5581 -19.8617 35.6739 -19.7246 32.8668 -19.4612C25.8745 -26.6756 16.6328 -31.0638 6.5 -31.0638C-15.3152 -31.0638 -33 -10.7237 -33 14.367C-33 39.4578 -15.3152 59.7979 6.5 59.7979C21.0103 59.7979 33.6932 50.7991 40.5601 37.3889C40.8727 37.3921 41.186 37.3936 41.5 37.3936C60.102 37.3936 76.4006 31.9112 85.4518 23.6946C90.1257 31.9604 98.0327 37.3936 107 37.3936C114.278 37.3936 120.857 33.8152 125.576 28.0482C133.669 37.9646 151.635 44.8617 172.5 44.8617C198.755 44.8617 220.422 33.9402 223.599 19.8241C230.979 21.5021 239.468 22.4574 248.5 22.4574C255.031 22.4574 261.278 21.958 267.027 21.047C271.719 30.5852 284.039 37.3936 298.5 37.3936C308.129 37.3936 316.81 34.3746 322.921 29.5408C330.157 38.938 340.727 44.8617 352.5 44.8617Z" fill="white" fill-opacity="0.5"/>
</svg>
