<svg width="414" height="175" viewBox="0 0 414 175" fill="none" xmlns="http://www.w3.org/2000/svg">
<path fill-rule="evenodd" clip-rule="evenodd" d="M438 -8H-46V59.5183C-60.5597 69.7739 -70 86.244 -70 104.814C-70 135.909 -43.5294 161.117 -10.8763 161.117C10.8427 161.117 29.8265 149.965 40.1048 133.345C40.5728 133.349 41.0418 133.351 41.5117 133.351C69.3553 133.351 93.7509 126.557 107.299 116.374C114.295 126.618 126.13 133.351 139.552 133.351C150.445 133.351 160.293 128.916 167.357 121.769C179.47 134.059 206.363 142.606 237.593 142.606C276.892 142.606 309.322 129.071 314.078 111.577C325.124 113.656 337.831 114.84 351.35 114.84C361.125 114.84 370.475 114.221 379.08 113.092C386.104 124.913 404.545 133.351 426.19 133.351C440.603 133.351 453.596 129.609 462.743 123.619C473.575 135.265 489.396 142.606 507.017 142.606C511.051 142.606 514.99 142.222 518.797 141.489C527.985 161.229 548.742 175 572.876 175C605.529 175 632 149.792 632 118.697C632 93.303 614.347 71.8357 590.09 64.817V57H557.512C547.128 40.808 528.398 30 507.017 30C485.636 30 466.906 40.808 456.522 57H438V-8Z" fill="#F5F5F5" fill-opacity="0.5"/>
</svg>
